<?xml version="1.0" encoding="iso-8859-1"?>
<!-- Generator: Adobe Illustrator 19.0.0, SVG Export Plug-In . SVG Version: 6.00 Build 0)  -->
<svg version="1.1" id="Capa_1" xmlns="http://www.w3.org/2000/svg" xmlns:xlink="http://www.w3.org/1999/xlink" x="0px" y="0px"
	 viewBox="0 0 512 512" style="enable-background:new 0 0 512 512;" xml:space="preserve">
<rect x="343.92" y="117.83" style="fill:#BAD8CD;" width="25.478" height="59.735"/>
<path style="fill:#CDEAE0;" d="M461.658,168.195H50.592c-6.1,0-11.261,4.507-12.083,10.551L7.818,404.372l0,0v74.556
	c0,5.134,4.162,9.296,9.296,9.296h478.022c5.134,0,9.296-4.162,9.296-9.296v-74.556l-30.69-225.626
	C472.92,172.702,467.758,168.195,461.658,168.195z"/>
<path style="fill:#BAD8CD;" d="M473.742,178.746c-0.822-6.044-5.984-10.551-12.083-10.551H418.02l32.125,236.177v83.852h44.991
	c5.134,0,9.295-4.162,9.295-9.295v-74.556L473.742,178.746z"/>
<path style="fill:#00C6C8;" d="M476.657,124.024H231.043c-2.436,0-4.411-1.975-4.411-4.411V27.937c0-2.436,1.975-4.411,4.411-4.411
	h245.615c2.436,0,4.411,1.975,4.411,4.411v91.676C481.068,122.049,479.093,124.024,476.657,124.024z"/>
<path style="fill:#0FB0C0;" d="M476.657,23.526h-49.755v100.498h49.755c2.436,0,4.411-1.975,4.411-4.411V27.937
	C481.068,25.501,479.093,23.526,476.657,23.526z"/>
<path style="fill:#BAD8CD;" d="M494.886,488.474H16.864c-5.134,0-9.296-4.162-9.296-9.296v-74.556h496.613v74.556
	C504.182,484.312,500.02,488.474,494.886,488.474z"/>
<path style="fill:#A5C6B8;" d="M473.742,178.746c-0.822-6.044-5.984-10.551-12.083-10.551H418.02l32.125,236.177v83.852h44.991
	c5.134,0,9.295-4.162,9.295-9.295v-74.556L473.742,178.746z"/>
<path style="fill:#A3C1B5;" d="M450.145,488.224h44.991c2.503,0,4.77-0.994,6.441-2.603c1.61-1.671,2.604-3.939,2.604-6.443v-74.556
	h-54.037L450.145,488.224L450.145,488.224z"/>
<path style="fill:#9AB2A8;" d="M209.421,315.925H74.332c-2.843,0-5.147-2.305-5.147-5.147v-17.275c0-2.843,2.305-5.147,5.147-5.147
	h135.089c2.843,0,5.147,2.305,5.147,5.147v17.275C214.568,313.621,212.264,315.925,209.421,315.925z"/>
<path style="fill:#FFFFFF;" d="M158.692,201.965c-8.411,0-8.411,4-16.822,4c-8.411,0-8.411-4-16.821-4c-8.408,0-8.408,4-16.815,4
	c-8.41,0-8.41-4-16.82-4v113.96H192.34v-113.96c-8.412,0-8.412,4-16.824,4C167.104,205.965,167.104,201.965,158.692,201.965z"/>
<path style="fill:#F2F2F2;" d="M175.516,205.965c-8.412,0-8.412-4-16.824-4c-8.411,0-8.411,4-16.822,4
	c-1.46,0-2.655-0.126-3.696-0.325v110.285h54.167v-113.96C183.928,201.965,183.928,205.965,175.516,205.965z"/>
<g>
	<path style="fill:#FFFFFF;" d="M306.446,321.627h-27.573c-2.01,0-3.64-1.63-3.64-3.64v-25.348c0-2.01,1.63-3.64,3.64-3.64h27.573
		c2.01,0,3.64,1.63,3.64,3.64v25.348C310.086,319.997,308.457,321.627,306.446,321.627z"/>
	<path style="fill:#FFFFFF;" d="M369.551,321.627h-27.573c-2.01,0-3.64-1.63-3.64-3.64v-25.348c0-2.01,1.63-3.64,3.64-3.64h27.573
		c2.01,0,3.64,1.63,3.64,3.64v25.348C373.191,319.997,371.561,321.627,369.551,321.627z"/>
	<path style="fill:#FFFFFF;" d="M432.655,321.627h-27.573c-2.01,0-3.64-1.63-3.64-3.64v-25.348c0-2.01,1.63-3.64,3.64-3.64h27.573
		c2.01,0,3.64,1.63,3.64,3.64v25.348C436.295,319.997,434.666,321.627,432.655,321.627z"/>
	<path style="fill:#FFFFFF;" d="M306.446,378.734h-27.573c-2.01,0-3.64-1.63-3.64-3.64v-25.348c0-2.01,1.63-3.64,3.64-3.64h27.573
		c2.01,0,3.64,1.63,3.64,3.64v25.348C310.086,377.104,308.457,378.734,306.446,378.734z"/>
	<path style="fill:#FFFFFF;" d="M369.328,378.984h-27.572c-2.021,0-3.655-1.647-3.64-3.668l0.195-25.598
		c0.015-1.999,1.64-3.612,3.64-3.612h27.572c2.021,0,3.655,1.647,3.64,3.668l-0.195,25.598
		C372.953,377.371,371.328,378.984,369.328,378.984z"/>
	<path style="fill:#FFFFFF;" d="M432.405,378.984h-27.573c-2.01,0-3.64-1.63-3.64-3.64v-25.348c0-2.01,1.63-3.64,3.64-3.64h27.573
		c2.01,0,3.64,1.63,3.64,3.64v25.348C436.045,377.354,434.416,378.984,432.405,378.984z"/>
</g>
<path style="fill:#00C67F;" d="M428.527,264.874H282.502c-4.488,0-8.127-3.639-8.127-8.127v-51.43c0-4.488,3.638-8.127,8.127-8.127
	h146.026c4.488,0,8.127,3.639,8.127,8.127v51.43C436.654,261.235,433.016,264.874,428.527,264.874z"/>
<path style="fill:#00AD6B;" d="M428.527,197.19h-46.04v67.684h46.04c4.488,0,8.127-3.638,8.127-8.127v-51.43
	C436.654,200.828,433.016,197.19,428.527,197.19z"/>
<path style="fill:#9AB2A8;" d="M335.677,455.622H176.073c-3.365,0-6.092,2.728-6.092,6.092v26.76h171.788v-26.76
	C341.769,458.35,339.041,455.622,335.677,455.622z"/>
<path style="fill:#81998E;" d="M335.677,455.622h-48.074v32.852h54.167v-26.76C341.769,458.35,339.041,455.622,335.677,455.622z"/>
<path d="M168.852,233.494h-49.013c-4.144,0-7.502,3.359-7.502,7.502s3.358,7.502,7.502,7.502h49.013
	c4.144,0,7.502-3.359,7.502-7.502S172.995,233.494,168.852,233.494z"/>
<path d="M168.852,263.169h-49.013c-4.144,0-7.502,3.359-7.502,7.502s3.358,7.502,7.502,7.502h49.013
	c4.144,0,7.502-3.359,7.502-7.502C176.354,266.527,172.995,263.169,168.852,263.169z"/>
<path d="M313.771,63.574h131.963c4.144,0,7.502-3.359,7.502-7.502s-3.358-7.502-7.502-7.502H313.771
	c-4.144,0-7.502,3.359-7.502,7.502S309.628,63.574,313.771,63.574z"/>
<path d="M262.018,63.574h16.847c4.144,0,7.502-3.359,7.502-7.502s-3.358-7.502-7.502-7.502h-16.847
	c-4.144,0-7.502,3.359-7.502,7.502S257.875,63.574,262.018,63.574z"/>
<path d="M445.734,79.953h-15.07c-4.144,0-7.502,3.359-7.502,7.502s3.358,7.502,7.502,7.502h15.07c4.144,0,7.502-3.359,7.502-7.502
	S449.878,79.953,445.734,79.953z"/>
<path d="M403.261,87.455c0-4.143-3.358-7.502-7.502-7.502H262.018c-4.144,0-7.502,3.359-7.502,7.502s3.358,7.502,7.502,7.502
	h133.741C399.903,94.957,403.261,91.598,403.261,87.455z"/>
<path d="M511.932,403.401l-30.698-225.687c-1.322-9.716-9.715-17.044-19.521-17.044h-84.779v-29.179h99.782
	c6.569,0,11.914-5.345,11.914-11.914V27.876c0-6.57-5.345-11.914-11.914-11.914h-245.68c-6.569,0-11.914,5.345-11.914,11.914v91.701
	c0,6.57,5.345,11.914,11.914,11.914h105.409v29.179H50.537c-9.806,0-18.199,7.328-19.521,17.045L0.517,401.939
	C0.188,402.784,0,403.7,0,404.662v74.576c0,9.264,7.536,16.8,16.8,16.8l0,0h478.15l0,0c4.695,0,8.941-1.941,11.992-5.056
	c3.117-3.052,5.058-7.298,5.058-11.994v-74.576C512,404.074,511.978,403.736,511.932,403.401z M234.126,116.487V30.966h239.5v85.521
	l0,0H234.126L234.126,116.487z M361.931,131.491v29.178H351.45v-29.178H361.931z M45.883,179.737
	c0.316-2.317,2.316-4.063,4.654-4.063h411.176c2.338,0,4.338,1.747,4.654,4.063l29.574,217.423H16.31L45.883,179.737z
	 M334.289,480.784H177.46v-17.607h156.829V480.784z M496.746,479.238c0,0.432-0.16,0.823-0.415,1.133
	c-0.31,0.254-0.701,0.413-1.132,0.413H349.293v-19.015c0-7.497-6.099-13.595-13.595-13.595H176.052
	c-7.496,0-13.595,6.099-13.595,13.595v19.015H17.05c-0.99,0-1.796-0.806-1.796-1.796v-66.824h481.492V479.238z"/>
<path d="M428.573,189.672H282.509c-8.619,0-15.631,7.012-15.631,15.631v51.443c0,8.619,7.012,15.631,15.631,15.631h146.064
	c8.619,0,15.631-7.012,15.631-15.631v-51.443C444.205,196.685,437.193,189.672,428.573,189.672z M429.201,256.747
	c0,0.346-0.281,0.627-0.627,0.627H282.509c-0.346,0-0.627-0.281-0.627-0.627v-51.443c0-0.346,0.281-0.627,0.627-0.627h146.064
	c0.346,0,0.627,0.281,0.627,0.627L429.201,256.747L429.201,256.747z"/>
<path d="M209.408,280.862h-9.583v-78.911c0-4.143-3.358-7.502-7.502-7.502c-5.9,0-9.215,1.576-11.636,2.727
	c-1.784,0.848-2.678,1.274-5.194,1.274c-2.514,0-3.409-0.425-5.193-1.274c-2.421-1.151-5.736-2.727-11.636-2.727
	c-5.9,0-9.214,1.577-11.635,2.728c-1.784,0.848-2.678,1.273-5.192,1.273s-3.408-0.425-5.19-1.273
	c-2.421-1.151-5.736-2.728-11.635-2.728c-5.899,0-9.213,1.577-11.633,2.728c-1.782,0.847-2.676,1.273-5.187,1.273
	c-2.513,0-3.408-0.425-5.19-1.273c-2.421-1.151-5.736-2.728-11.635-2.728c-4.144,0-7.502,3.359-7.502,7.502v78.911h-9.584
	c-6.975,0-12.651,5.675-12.651,12.651v17.28c0,6.975,5.675,12.651,12.651,12.651h17.086h100.955h17.085
	c6.975,0,12.651-5.675,12.651-12.651v-17.28C222.059,286.538,216.384,280.862,209.408,280.862z M83.867,308.44h-7.23v-12.573h7.23
	V308.44z M184.822,288.364v20.075H98.871v-20.075v-76.602c2.195,0.882,5.095,1.692,9.323,1.692c5.898,0,9.212-1.577,11.632-2.728
	c1.782-0.847,2.676-1.273,5.188-1.273c2.513,0,3.408,0.425,5.19,1.273c2.421,1.151,5.736,2.728,11.635,2.728
	c5.9,0,9.214-1.577,11.635-2.728c1.784-0.848,2.678-1.273,5.192-1.273c2.514,0,3.409,0.425,5.193,1.274
	c2.421,1.151,5.736,2.727,11.636,2.727c4.231,0,7.132-0.81,9.328-1.693L184.822,288.364L184.822,288.364z M207.055,308.44h-7.229
	v-12.573h7.229V308.44z"/>
<path d="M306.46,281.506h-27.58c-6.144,0-11.144,4.999-11.144,11.143v25.355c0,6.144,4.999,11.143,11.144,11.143h27.58
	c6.144,0,11.143-4.999,11.143-11.143v-25.355C317.602,286.504,312.604,281.506,306.46,281.506z M302.598,314.143H282.74V296.51
	h19.858V314.143z"/>
<path d="M369.581,281.506h-27.58c-6.144,0-11.144,4.999-11.144,11.143v25.355c0,6.144,4.999,11.143,11.144,11.143h27.58
	c6.144,0,11.143-4.999,11.143-11.143v-25.355C380.724,286.504,375.725,281.506,369.581,281.506z M365.72,314.143h-19.858V296.51
	h19.858V314.143z"/>
<path d="M432.702,281.506h-27.58c-6.144,0-11.144,4.999-11.144,11.143v25.355c0,6.144,4.999,11.143,11.144,11.143h27.58
	c6.144,0,11.143-4.999,11.143-11.143v-25.355C443.845,286.504,438.847,281.506,432.702,281.506z M428.841,314.143h-19.858V296.51
	h19.858V314.143z"/>
<path d="M306.46,338.628h-27.58c-6.144,0-11.144,4.999-11.144,11.143v25.354c0,6.144,4.999,11.143,11.144,11.143h27.58
	c6.144,0,11.143-4.999,11.143-11.143v-25.354C317.602,343.627,312.604,338.628,306.46,338.628z M302.598,371.265H282.74v-17.633
	h19.858V371.265z"/>
<path d="M369.554,338.628h-27.581c-6.096,0-11.095,4.96-11.143,11.058l-0.194,25.604c-0.022,2.992,1.125,5.81,3.233,7.934
	c2.107,2.125,4.916,3.294,7.909,3.294h27.58c6.096,0,11.096-4.96,11.144-11.058l0.194-25.604c0.022-2.992-1.125-5.81-3.233-7.934
	C375.355,339.798,372.547,338.628,369.554,338.628z M365.527,371.515h-19.858l0.136-17.883h19.858L365.527,371.515z"/>
<path d="M432.452,338.878h-27.58c-6.144,0-11.144,4.999-11.144,11.143v25.354c0,6.144,4.999,11.143,11.144,11.143h27.58
	c6.144,0,11.143-4.999,11.143-11.143v-25.354C443.595,343.877,438.597,338.878,432.452,338.878z M428.591,371.515h-19.858v-17.633
	h19.858V371.515z"/>
<g>
</g>
<g>
</g>
<g>
</g>
<g>
</g>
<g>
</g>
<g>
</g>
<g>
</g>
<g>
</g>
<g>
</g>
<g>
</g>
<g>
</g>
<g>
</g>
<g>
</g>
<g>
</g>
<g>
</g>
</svg>
