<svg id="Layer_5" enable-background="new 0 0 64 64" height="512" viewBox="0 0 64 64" width="512" xmlns="http://www.w3.org/2000/svg"><g><g><g><path d="m62 4v10h-50v-10c0-1.1.9-2 2-2h46c1.1 0 2 .9 2 2z" fill="#5cd6b3"/></g><g><path d="m62 14v34c0 1.1-.9 2-2 2h-25.19c.29-.69.53-1.42.71-2.16l2.48-.84v-6l-2.48-.84c-.39-1.58-1.01-3.06-1.84-4.42l1.17-2.35-4.24-4.24-2.35 1.17c-1.36-.83-2.84-1.45-4.42-1.84l-.84-2.48h-6l-.84 2.48c-1.48.37-2.87.93-4.16 1.69v-16.17z" fill="#e6e9ed"/></g><g><path d="m48 18h10v8h-10z" fill="#4fc1e9"/></g><g><path d="m34 18h10v8h-10z" fill="#4fc1e9"/></g><g><path d="m52 40v6h-10v-10h6v4z" fill="#5cd6b3"/></g><g><path d="m58 30v10h-6-4v-4-6z" fill="#ff826e"/></g><g><path d="m42 6h16v4h-16z" fill="#fcd770"/></g><g><path d="m28 7v2c0 .552-.448 1-1 1h-10c-.552 0-1-.448-1-1v-2c0-.552.448-1 1-1h10c.552 0 1 .448 1 1z" fill="#e6e9ed"/></g><g><path d="m38 41v6l-2.48.84c-.18.74-.42 1.47-.71 2.16-.31.79-.69 1.54-1.13 2.26l1.17 2.35-4.24 4.24-2.35-1.17c-1.36.83-2.84 1.45-4.42 1.84l-.84 2.48h-6l-.84-2.48c-1.58-.39-3.06-1.01-4.42-1.84l-2.35 1.17-4.24-4.24 1.17-2.35c-.83-1.36-1.45-2.84-1.84-4.42l-2.48-.84v-6l2.48-.84c.39-1.58 1.01-3.06 1.84-4.42l-1.17-2.35 4.24-4.24 2.35 1.17c.08-.05.17-.1.26-.15 1.29-.76 2.68-1.32 4.16-1.69l.84-2.48h6l.84 2.48c1.58.39 3.06 1.01 4.42 1.84l2.35-1.17 4.24 4.24-1.17 2.35c.83 1.36 1.45 2.84 1.84 4.42z" fill="#fcd770"/></g><g><circle cx="20" cy="44" fill="#ffeaa7" r="12"/></g></g><g><path d="m20 31c-7.168 0-13 5.832-13 13s5.832 13 13 13 13-5.832 13-13-5.832-13-13-13zm0 24c-6.065 0-11-4.935-11-11s4.935-11 11-11 11 4.935 11 11-4.935 11-11 11z"/><path d="m21 37h-2v10h-2v2h2v2h2v-2h2v-2h-2z"/><path d="m17 43v-2h-2v-4h-2v4h-2v2h2v8h2v-8z"/><path d="m27 37h-2v6h-2v2h2v6h2v-6h2v-2h-2z"/><path d="m60 1h-46c-1.654 0-3 1.346-3 3v24.831l-1.806-.895-5.259 5.259 1.244 2.509c-.652 1.163-1.165 2.398-1.526 3.685l-2.653.892v7.438l2.653.894c.361 1.286.874 2.521 1.526 3.685l-1.244 2.509 5.259 5.259 2.509-1.245c1.165.654 2.4 1.166 3.685 1.527l.893 2.652h7.438l.894-2.653c1.284-.361 2.52-.873 3.685-1.527l2.509 1.245 5.259-5.259-1.244-2.509c.236-.42.431-.859.63-1.297h24.548c1.654 0 3-1.346 3-3v-44c0-1.654-1.346-3-3-3zm-46 2h46c.552 0 1 .448 1 1v9h-48v-9c0-.552.448-1 1-1zm20.547 44.597c-.361 1.463-.938 2.857-1.718 4.145l-.284.47 1.09 2.196-3.228 3.228-2.196-1.09-.47.284c-1.289.779-2.684 1.357-4.145 1.718l-.533.131-.782 2.321h-4.563l-.782-2.322-.533-.131c-1.461-.36-2.855-.938-4.145-1.718l-.47-.284-2.196 1.09-3.228-3.228 1.09-2.196-.284-.47c-.779-1.287-1.356-2.682-1.718-4.145l-.131-.533-2.321-.782v-4.563l2.322-.782.131-.533c.361-1.463.938-2.857 1.718-4.145l.284-.47-1.09-2.196 3.228-3.228 2.196 1.09.47-.284c1.287-.779 2.682-1.356 4.145-1.718l.533-.131.782-2.321h4.563l.782 2.322.533.131c1.463.361 2.857.938 4.145 1.718l.47.284 2.196-1.09 3.228 3.228-1.09 2.196.284.47c.779 1.287 1.356 2.682 1.718 4.145l.131.533 2.321.782v4.563l-2.322.782zm25.453 1.403h-23.788c.04-.131.097-.256.134-.388l2.654-.893v-7.438l-2.653-.894c-.361-1.286-.874-2.521-1.526-3.685l1.244-2.509-5.259-5.259-2.509 1.244c-1.163-.652-2.398-1.165-3.685-1.526l-.893-2.652h-7.438l-.894 2.653c-.822.231-1.613.545-2.388.897v-13.55h48v33c.001.552-.447 1-.999 1z"/><path d="m17 11h10c1.103 0 2-.897 2-2v-2c0-1.103-.897-2-2-2h-10c-1.103 0-2 .897-2 2v2c0 1.103.897 2 2 2zm4-2v-2h2v2zm6.002 0h-2.002v-2h2zm-10.002-2h2v2h-2z"/><path d="m59 5h-18v6h18zm-2 4h-14v-2h14z"/><path d="m15 17h16v2h-16z"/><path d="m15 21h12v2h-12z"/><path d="m29 21h2v2h-2z"/><path d="m47 35h-6v12h12v-6h6v-12h-12zm4 10h-8v-8h4v4h4zm-2-14h8v8h-8z"/><path d="m47 27h12v-10h-12zm2-8h8v6h-8z"/><path d="m45 17h-12v10h12zm-2 8h-8v-6h8z"/></g></g></svg>